<?xml version="1.0" encoding="utf-8"?>
<!-- Generator: Adobe Illustrator 19.1.0, SVG Export Plug-In . SVG Version: 6.00 Build 0)  -->
<svg version="1.1" id="Layer_1" xmlns="http://www.w3.org/2000/svg" xmlns:xlink="http://www.w3.org/1999/xlink" x="0px" y="0px"
   viewBox="0 0 159.9 40.4" style="enable-background:new 0 0 159.9 40.4;" xml:space="preserve">
<style type="text/css">
  .st0{fill:#FFFFFF;}
</style>
<path id="XMLID_82_" class="st0" d="M66.3,26.1c0-10.5-3.2-14.6-11.4-14.6c-8.1,0-11.8,4.6-11.8,14.4c0,10.2,3.8,14.4,13,14.4
  c3.2,0,6.1-0.5,8.8-1.6l0.3-0.1l-1-2.5l-0.3,0.1c-2.3,0.8-4.3,1.3-7.3,1.3c-6.6,0-9.1-3-9.2-11.1h19V26.1z M62,23.9H47.3
  c0.3-6.9,2.7-10,7.5-10C59.8,13.9,61.9,16.8,62,23.9z M69.9,0v39.7h4.2V0H69.9z M39,12.2l-7.9,24.2l-7.5-24.2h-1.4h-1.8h-0.7
  l-7.5,24.2l-7.8-24l-0.1-0.2H0l9.2,27.5h5.2l6.9-22.1l6.9,22.1h5.2l9.2-27.5H39z M98,11.9v24.3c-1.4,0.2-3,0.3-4.6,0.3
  c-3.8,0-5.4-1.6-5.4-5.5V11.9h-8.5v18.5c0,7,3.8,10,12.7,10c4.4,0,9.1-0.7,14-2l0.2-0.1V11.9H98z M122.8,23c-2.9-1-5.4-1.8-5.4-4
  c0-1.3,0.4-3,4.3-3c2.5,0,5.2,0.7,6.9,1.5l0.3,0.1l1.6-4.1l-0.3-0.1c-1.6-0.8-5-2.1-9.6-2.1c-6.8,0-10.9,3.1-10.9,8.3
  c0,6,4.8,7.7,8.7,9c2.8,1,5.3,1.8,5.3,4c0,2.2-1.5,3.2-4.7,3.2c-2.6,0-5.4-0.6-7.8-1.7l-0.3-0.1l-2,4.1l0.3,0.1
  c2.9,1.5,6.8,2.4,10.8,2.4c7.4,0,11.5-3.1,11.5-8.6C131.4,25.9,126.6,24.3,122.8,23z M159.9,27.1c0-11.7-3.5-15.9-13.3-15.9
  c-9.5,0-13.7,4.5-13.7,14.6c0,10.5,4.2,14.6,15,14.6c3.9,0,7.9-0.8,10.6-2.2l0.3-0.1l-1.6-3.9l-0.3,0.1c-2,0.7-4.4,1.4-7.5,1.4
  c-5.3,0-7.5-2.3-7.8-8.3h18.4V27.1z M141.6,23.4c0.3-7.5,2.7-8.5,5.1-8.5c3.4,0,4.7,2.3,4.8,8.5H141.6z"/>
</svg>
